<svg width="155" height="40" viewBox="0 0 155 40" fill="none" xmlns="http://www.w3.org/2000/svg">
<path d="M2.39844 15L21.1484 5L39.8984 15L21.1484 25L2.39844 15Z" stroke="#FF6636" stroke-width="3" stroke-linecap="round" stroke-linejoin="round"/>
<path d="M30.5234 37.5V20L21.1484 15" stroke="#FF6636" stroke-width="3" stroke-linecap="round" stroke-linejoin="round"/>
<path d="M35.5234 17.3333V25.8521C35.524 26.1218 35.4368 26.3843 35.2751 26.6001C34.2225 28.0008 29.7817 33.1249 21.1484 33.1249C12.5152 33.1249 8.07441 28.0008 7.0218 26.6001C6.86009 26.3843 6.77292 26.1218 6.77344 25.8521V17.3333" stroke="#FF6636" stroke-width="3" stroke-linecap="round" stroke-linejoin="round"/>
<path d="M51.4439 32V8.72727H66.5803V12.2614H55.6598V18.5795H65.7962V22.1136H55.6598V28.4659H66.6712V32H51.4439ZM80.3191 20.6136V24H69.8418V20.6136H80.3191ZM92.4017 14.5455V17.7273H82.3676V14.5455H92.4017ZM84.8449 10.3636H88.9586V26.75C88.9586 27.303 89.0419 27.7273 89.2086 28.0227C89.3828 28.3106 89.6101 28.5076 89.8904 28.6136C90.1707 28.7197 90.4813 28.7727 90.8222 28.7727C91.0798 28.7727 91.3146 28.7538 91.5267 28.7159C91.7464 28.678 91.9131 28.6439 92.0267 28.6136L92.7199 31.8295C92.5002 31.9053 92.1858 31.9886 91.7767 32.0795C91.3752 32.1705 90.8828 32.2235 90.2995 32.2386C89.2692 32.2689 88.3411 32.1136 87.5154 31.7727C86.6896 31.4242 86.0343 30.8864 85.5495 30.1591C85.0722 29.4318 84.8373 28.5227 84.8449 27.4318V10.3636ZM106.007 24.6591V14.5455H110.121V32H106.132V28.8977H105.95C105.556 29.875 104.909 30.6742 104.007 31.2955C103.113 31.9167 102.011 32.2273 100.7 32.2273C99.5563 32.2273 98.545 31.9735 97.6662 31.4659C96.795 30.9508 96.1131 30.2045 95.6207 29.2273C95.1283 28.2424 94.8821 27.053 94.8821 25.6591V14.5455H98.9957V25.0227C98.9957 26.1288 99.2987 27.0076 99.9048 27.6591C100.511 28.3106 101.306 28.6364 102.291 28.6364C102.897 28.6364 103.484 28.4886 104.053 28.1932C104.621 27.8977 105.087 27.4583 105.45 26.875C105.821 26.2841 106.007 25.5455 106.007 24.6591ZM122.107 14.5455V17.7273H112.073V14.5455H122.107ZM114.55 10.3636H118.664V26.75C118.664 27.303 118.747 27.7273 118.914 28.0227C119.088 28.3106 119.315 28.5076 119.595 28.6136C119.876 28.7197 120.186 28.7727 120.527 28.7727C120.785 28.7727 121.02 28.7538 121.232 28.7159C121.451 28.678 121.618 28.6439 121.732 28.6136L122.425 31.8295C122.205 31.9053 121.891 31.9886 121.482 32.0795C121.08 32.1705 120.588 32.2235 120.004 32.2386C118.974 32.2689 118.046 32.1136 117.22 31.7727C116.395 31.4242 115.739 30.8864 115.254 30.1591C114.777 29.4318 114.542 28.5227 114.55 27.4318V10.3636ZM132.013 32.3409C130.309 32.3409 128.831 31.9659 127.581 31.2159C126.331 30.4659 125.362 29.4167 124.672 28.0682C123.99 26.7197 123.65 25.1439 123.65 23.3409C123.65 21.5379 123.99 19.9583 124.672 18.6023C125.362 17.2462 126.331 16.1932 127.581 15.4432C128.831 14.6932 130.309 14.3182 132.013 14.3182C133.718 14.3182 135.195 14.6932 136.445 15.4432C137.695 16.1932 138.661 17.2462 139.343 18.6023C140.032 19.9583 140.377 21.5379 140.377 23.3409C140.377 25.1439 140.032 26.7197 139.343 28.0682C138.661 29.4167 137.695 30.4659 136.445 31.2159C135.195 31.9659 133.718 32.3409 132.013 32.3409ZM132.036 29.0455C132.96 29.0455 133.733 28.7917 134.354 28.2841C134.975 27.7689 135.437 27.0795 135.74 26.2159C136.051 25.3523 136.206 24.3902 136.206 23.3295C136.206 22.2614 136.051 21.2955 135.74 20.4318C135.437 19.5606 134.975 18.8674 134.354 18.3523C133.733 17.8371 132.96 17.5795 132.036 17.5795C131.089 17.5795 130.301 17.8371 129.672 18.3523C129.051 18.8674 128.585 19.5606 128.275 20.4318C127.972 21.2955 127.82 22.2614 127.82 23.3295C127.82 24.3902 127.972 25.3523 128.275 26.2159C128.585 27.0795 129.051 27.7689 129.672 28.2841C130.301 28.7917 131.089 29.0455 132.036 29.0455ZM142.908 32V14.5455H146.897V17.4545H147.079C147.397 16.447 147.942 15.6705 148.715 15.125C149.495 14.572 150.386 14.2955 151.386 14.2955C151.613 14.2955 151.867 14.3068 152.147 14.3295C152.435 14.3447 152.673 14.3712 152.863 14.4091V18.1932C152.689 18.1326 152.412 18.0795 152.033 18.0341C151.662 17.9811 151.302 17.9545 150.954 17.9545C150.204 17.9545 149.53 18.1174 148.931 18.4432C148.34 18.7614 147.874 19.2045 147.533 19.7727C147.192 20.3409 147.022 20.9962 147.022 21.7386V32H142.908Z" fill="#1D2026"/>
</svg>
